<svg xmlns="http://www.w3.org/2000/svg" xmlns:xlink="http://www.w3.org/1999/xlink" width="27.115" height="27.115" viewBox="0 0 27.115 27.115"><defs><style>.a{fill:none;}.b{clip-path:url(#a);}.c{fill:#d9d9d9;}.d{fill:#868686;}.e{fill:#fff;}</style><clipPath id="a"><rect class="a" width="27.115" height="27.115"/></clipPath></defs><g class="b"><path class="c" d="M14.5,24.155V1.5H26.035l5.456,5.456v17.2Z" transform="translate(-4.836 -1.04)"/><g transform="translate(9.203)"><path class="c" d="M30.5,7.164V1.5h.207l5.456,5.456v.207Z" transform="translate(-18.713 -1.04)"/><path class="d" d="M26.036.85H13.85V24.425H31.761V6.576ZM26.1,6.514v-4.3l4.3,4.3ZM30.841,23.5H14.77V1.77H25.177V7.434h5.664Z" transform="translate(-13.85 -0.85)"/></g><path class="e" d="M1.5,29.155V6.5H13.035l5.456,5.456v17.2Z" transform="translate(-1.04 -2.5)"/><g transform="translate(0 3.54)"><path class="e" d="M17.5,12.164V6.5h.207l5.456,5.456v.207Z" transform="translate(-5.713 -6.04)"/><path class="d" d="M13.035,5.85H.85V29.425H18.761V11.576ZM17.4,11.514H13.1v-4.3ZM17.841,28.5H1.77V6.77H12.177v5.664h5.664Z" transform="translate(-0.85 -5.85)"/></g></g></svg>