<svg xmlns="http://www.w3.org/2000/svg" xmlns:xlink="http://www.w3.org/1999/xlink" width="21" height="20.832" viewBox="0 0 21 20.832"><defs><style>.a{fill:none;}.b{clip-path:url(#a);}.c{fill:#505a6e;}</style><clipPath id="a"><rect class="a" width="21" height="20.832"/></clipPath></defs><g transform="translate(0 0)"><g class="b"><path class="c" d="M8.531.029a.535.535,0,0,0-.379.782l4.089,7.522a1.376,1.376,0,0,0-.934,0L1.136,11.387A1.585,1.585,0,0,0,0,12.927v.48a1.885,1.885,0,0,0,.555,1.287l7.194,5.831a1.649,1.649,0,0,0,1.06.328,1.826,1.826,0,0,0,.631-.177l10.6-4.442A1.566,1.566,0,0,0,21,14.795v-.4a1.854,1.854,0,0,0-.126-.656.521.521,0,0,0,.05-.555L16.81,4.522a1.612,1.612,0,0,0-.732-.732L8.885.08A.567.567,0,0,0,8.531.029Zm3.18,9.415,6.79,3.963-4.165,1.565L7.673,10.681ZM6.663,11.009l6.714,4.316L9.036,16.965,2.575,12.271Zm.278,6.209c.243,0,.48.322.48.808s-.237.808-.48.808-.48-.322-.48-.808C6.462,17.622,6.7,17.218,6.941,17.218Z" transform="translate(0 -0.02)"/></g></g></svg>