<svg xmlns="http://www.w3.org/2000/svg" width="16" height="16.001" viewBox="0 0 16 16.001"><defs><style>.a{fill:#515a6e;}</style></defs><path class="a" d="M17.71,8.686,15.655,8.35a5.89,5.89,0,0,0-.491-1.184l1.2-1.71a.348.348,0,0,0-.039-.446L14.972,3.657a.348.348,0,0,0-.449-.036L12.838,4.832a5.835,5.835,0,0,0-1.194-.5l-.359-2.047A.348.348,0,0,0,10.943,2H9.03a.348.348,0,0,0-.343.292L8.354,4.328a5.86,5.86,0,0,0-1.2.491l-1.68-1.2a.348.348,0,0,0-.448.037L3.678,5.008a.347.347,0,0,0-.039.445L4.821,7.145a5.892,5.892,0,0,0-.5,1.2l-2.028.338A.348.348,0,0,0,2,9.029v1.913a.348.348,0,0,0,.287.343l2.028.36a5.863,5.863,0,0,0,.5,1.2l-1.2,1.674a.349.349,0,0,0,.037.448L5.01,16.325a.348.348,0,0,0,.446.039L7.15,15.177a5.869,5.869,0,0,0,1.2.5l.34,2.039A.347.347,0,0,0,9.03,18h1.913a.347.347,0,0,0,.342-.287l.364-2.049a5.85,5.85,0,0,0,1.193-.5l1.706,1.2a.347.347,0,0,0,.446-.039l1.352-1.354a.348.348,0,0,0,.036-.449l-1.217-1.69a5.823,5.823,0,0,0,.489-1.185l2.059-.361A.348.348,0,0,0,18,10.943V9.029A.347.347,0,0,0,17.71,8.686ZM10,12.436A2.435,2.435,0,1,1,12.437,10,2.435,2.435,0,0,1,10,12.436Z" transform="translate(-2.002 -2)"/></svg>