<svg xmlns="http://www.w3.org/2000/svg" xmlns:xlink="http://www.w3.org/1999/xlink" width="20" height="20.87" viewBox="0 0 20 20.87"><defs><style>.a{fill:none;}.b{clip-path:url(#a);}.c{fill:#ccc;}</style><clipPath id="a"><rect class="a" width="20" height="20.87"/></clipPath></defs><g class="b" transform="translate(0 0)"><path class="c" d="M21.13,1.739H18.522V.87a.87.87,0,0,0-.87-.87h-.87a.87.87,0,0,0-.87.87v.87H8.087V.87A.87.87,0,0,0,7.217,0h-.87a.87.87,0,0,0-.87.87v.87H2.87a.841.841,0,0,0-.87.87V20a.841.841,0,0,0,.87.87H21.13A.841.841,0,0,0,22,20V2.609A.841.841,0,0,0,21.13,1.739ZM17.653,3.478v0ZM16.783.87h.87V3.478h-.869ZM7.218,3.478v0ZM6.348.87h.87V3.478H6.348Zm-.87,1.739v.87a.87.87,0,0,0,.87.87h.87a.87.87,0,0,0,.87-.87v-.87h7.826v.87a.87.87,0,0,0,.87.87h.87a.87.87,0,0,0,.87-.87v-.87H21.13V5.652H2.87V2.609ZM2.87,20V6.522H21.13V20Z" transform="translate(-2)"/><path class="c" d="M10,29H23.043V19H10Zm.87-3.043h2.174V28.13H10.87Zm8.261-.87H16.957V22.913H19.13ZM20,22.913h2.174v2.174H20Zm-3.043,3.043H19.13V28.13H16.957Zm-.87,2.174H13.913V25.957h2.174Zm.87-6.087V19.87H19.13v2.174Zm-.87,0H13.913V19.87h2.174Zm0,.87v2.174H13.913V22.913Zm-3.043,2.174H10.87V22.913h2.174ZM20,28.13V25.957h2.174V28.13Zm2.174-6.087H20V19.87h2.174Zm-9.13-2.174v2.174H10.87V19.87Z" transform="translate(-6.522 -10.739)"/></g></svg>