<svg xmlns="http://www.w3.org/2000/svg" xmlns:xlink="http://www.w3.org/1999/xlink" width="67.667" height="87" viewBox="0 0 67.667 87"><defs><style>.a{fill:none;}.b{clip-path:url(#a);}.c{fill:#fff;}.d{fill:#4788c7;}.e{fill:#dff0fe;}</style><clipPath id="a"><rect class="a" width="67.667" height="87"/></clipPath></defs><g class="b"><g transform="translate(-6 -2)"><g transform="translate(6 2)"><path class="c" d="M6.5,87.083V2.5H50.708L71.75,23.542V87.083Z" transform="translate(-5.292 -1.292)"/><path class="d" d="M50.916,4.417,71.25,24.75V86.583H8.417V4.417h42.5m1-2.417H6V89H73.667V23.75L51.917,2Z" transform="translate(-6 -2)"/></g><g transform="translate(49.5 2)"><path class="e" d="M24.5,24.25V2.5h.708L46.25,23.542v.708Z" transform="translate(-23.292 -1.292)"/><path class="d" d="M26.417,5.417,44.75,23.75H26.417V5.417m0-3.417H24V26.167H48.167V23.75L26.417,2Z" transform="translate(-24 -2)"/></g></g><g transform="translate(-8.966 0.533)"><path class="d" d="M17.212,12.469a3.272,3.272,0,0,1,.264-1.351,3.177,3.177,0,0,1,.707-1.013,3.034,3.034,0,0,1,1.024-.644,3.431,3.431,0,0,1,2.427,0,3.046,3.046,0,0,1,1.022.644,3.177,3.177,0,0,1,.708,1.013,3.291,3.291,0,0,1,.264,1.351v8.822a3.292,3.292,0,0,1-.264,1.351,3.178,3.178,0,0,1-.708,1.013,3.037,3.037,0,0,1-1.024.645,3.424,3.424,0,0,1-2.426,0,3.025,3.025,0,0,1-1.024-.645,3.178,3.178,0,0,1-.708-1.013,3.274,3.274,0,0,1-.263-1.351Zm2.153,8.822a1.063,1.063,0,0,0,.3.77,1.094,1.094,0,0,0,1.52,0,1.063,1.063,0,0,0,.3-.77V12.469a1.067,1.067,0,0,0-.3-.77,1.1,1.1,0,0,0-1.52,0,1.067,1.067,0,0,0-.3.77Zm8.252,3.1V11.646l-2.153,1.583V10.95l2.153-1.583h2.153V24.393Zm5.3-11.924a3.272,3.272,0,0,1,.263-1.351,3.177,3.177,0,0,1,.708-1.013,3.034,3.034,0,0,1,1.024-.644,3.431,3.431,0,0,1,2.426,0,3.046,3.046,0,0,1,1.024.644,3.177,3.177,0,0,1,.708,1.013,3.291,3.291,0,0,1,.263,1.351v8.822a3.292,3.292,0,0,1-.263,1.351,3.178,3.178,0,0,1-.708,1.013,3.037,3.037,0,0,1-1.024.644,3.424,3.424,0,0,1-2.427,0,3.025,3.025,0,0,1-1.022-.644,3.178,3.178,0,0,1-.708-1.013,3.274,3.274,0,0,1-.264-1.351Zm2.153,8.822a1.063,1.063,0,0,0,.294.77,1.094,1.094,0,0,0,1.52,0,1.063,1.063,0,0,0,.3-.77V12.469a1.067,1.067,0,0,0-.3-.77,1.1,1.1,0,0,0-1.52,0,1.067,1.067,0,0,0-.3.77ZM17.212,35.919a3.277,3.277,0,0,1,.264-1.351,3.16,3.16,0,0,1,.707-1.012,3.029,3.029,0,0,1,1.024-.645,3.44,3.44,0,0,1,2.427,0,3.04,3.04,0,0,1,1.022.645,3.16,3.16,0,0,1,.708,1.012,3.3,3.3,0,0,1,.264,1.351v8.822a3.292,3.292,0,0,1-.264,1.351,3.178,3.178,0,0,1-.708,1.013,3.037,3.037,0,0,1-1.024.645,3.424,3.424,0,0,1-2.426,0,3.025,3.025,0,0,1-1.024-.645,3.177,3.177,0,0,1-.708-1.013,3.274,3.274,0,0,1-.263-1.351Zm2.153,8.822a1.063,1.063,0,0,0,.3.77,1.094,1.094,0,0,0,1.52,0,1.063,1.063,0,0,0,.3-.77V35.919a1.066,1.066,0,0,0-.3-.77,1.1,1.1,0,0,0-1.52,0,1.065,1.065,0,0,0-.3.77Zm5.7-8.822a3.277,3.277,0,0,1,.264-1.351,3.16,3.16,0,0,1,.707-1.012,3.029,3.029,0,0,1,1.024-.645,3.44,3.44,0,0,1,2.427,0,3.04,3.04,0,0,1,1.024.645,3.16,3.16,0,0,1,.707,1.012,3.3,3.3,0,0,1,.264,1.351v8.822a3.292,3.292,0,0,1-.264,1.351,3.177,3.177,0,0,1-.707,1.013,3.037,3.037,0,0,1-1.024.644,3.424,3.424,0,0,1-2.427,0,3.025,3.025,0,0,1-1.024-.644,3.177,3.177,0,0,1-.707-1.013,3.274,3.274,0,0,1-.264-1.351Zm2.153,8.822a1.063,1.063,0,0,0,.3.77,1.094,1.094,0,0,0,1.52,0,1.063,1.063,0,0,0,.3-.77V35.919a1.065,1.065,0,0,0-.3-.77,1.1,1.1,0,0,0-1.52,0,1.066,1.066,0,0,0-.3.77Zm8.251,3.1V35.1l-2.153,1.583V34.4l2.153-1.583h2.153V47.843Zm7.851,0V35.1l-2.152,1.583V34.4l2.152-1.583h2.154V47.843Zm5.3-11.924a3.277,3.277,0,0,1,.264-1.351,3.16,3.16,0,0,1,.707-1.012,3.028,3.028,0,0,1,1.024-.645,3.44,3.44,0,0,1,2.427,0,3.04,3.04,0,0,1,1.024.645,3.16,3.16,0,0,1,.707,1.012,3.3,3.3,0,0,1,.264,1.351v8.822a3.292,3.292,0,0,1-.264,1.351A3.177,3.177,0,0,1,54.06,47.1a3.037,3.037,0,0,1-1.024.644,3.424,3.424,0,0,1-2.427,0,3.025,3.025,0,0,1-1.024-.644,3.177,3.177,0,0,1-.707-1.013,3.274,3.274,0,0,1-.264-1.351Zm2.153,8.822a1.063,1.063,0,0,0,.3.77,1.094,1.094,0,0,0,1.52,0,1.063,1.063,0,0,0,.3-.77V35.919a1.066,1.066,0,0,0-.3-.77,1.1,1.1,0,0,0-1.52,0,1.065,1.065,0,0,0-.3.77Zm-31,26.552V58.546l-2.153,1.583V57.849l2.153-1.583h2.153V71.293Zm7.851,0V58.546l-2.153,1.583V57.849l2.153-1.583h2.153V71.293Zm7.85,0V58.546l-2.153,1.583V57.849l2.153-1.583h2.153V71.293Zm5.3-11.924a3.277,3.277,0,0,1,.264-1.351,3.16,3.16,0,0,1,.707-1.012,3.028,3.028,0,0,1,1.024-.645,3.44,3.44,0,0,1,2.427,0,3.04,3.04,0,0,1,1.024.645,3.16,3.16,0,0,1,.707,1.012,3.3,3.3,0,0,1,.264,1.351V68.19a3.292,3.292,0,0,1-.264,1.351,3.178,3.178,0,0,1-.707,1.013,3.036,3.036,0,0,1-1.025.644,3.424,3.424,0,0,1-2.426,0,3.025,3.025,0,0,1-1.024-.644,3.178,3.178,0,0,1-.707-1.013,3.273,3.273,0,0,1-.264-1.351Zm2.153,8.822a1.063,1.063,0,0,0,.3.77,1.094,1.094,0,0,0,1.52,0,1.063,1.063,0,0,0,.3-.77V59.369a1.065,1.065,0,0,0-.3-.77,1.1,1.1,0,0,0-1.52,0,1.066,1.066,0,0,0-.3.77Zm8.251,3.1V58.546l-2.153,1.583V57.849l2.153-1.583h2.153V71.293Z" transform="translate(0)"/></g></g></svg>