<svg xmlns="http://www.w3.org/2000/svg" width="16.574" height="14" viewBox="0 0 16.574 14"><defs><style>.a{fill:#505a6e;}</style></defs><path class="a" d="M17.028,4a3.9,3.9,0,0,0-2.512.878L12.542,6.549a2.679,2.679,0,0,0-.851,3.076l1.418-1.2a1.57,1.57,0,0,1,.55-.936l1.974-1.667a2.241,2.241,0,0,1,2.791,0,1.492,1.492,0,0,1,0,2.357L16.45,9.849a2.111,2.111,0,0,1-1.108.464l-1.418,1.2a4.17,4.17,0,0,0,1.13.158,3.9,3.9,0,0,0,2.512-.878L19.54,9.125a2.686,2.686,0,0,0,0-4.243A3.9,3.9,0,0,0,17.028,4ZM14.645,8.33a.863.863,0,0,0-.543.2l-4.737,4a.6.6,0,0,0,0,.943.9.9,0,0,0,1.117,0l4.736-4a.6.6,0,0,0,.177-.738.808.808,0,0,0-.75-.407ZM9.706,10.345a3.918,3.918,0,0,0-2.689.871L5.044,12.883a2.687,2.687,0,0,0,0,4.244A3.9,3.9,0,0,0,7.555,18a3.9,3.9,0,0,0,2.512-.878l1.974-1.667a2.679,2.679,0,0,0,.852-3.076l-1.418,1.2a1.57,1.57,0,0,1-.55.936L8.951,16.184a2.24,2.24,0,0,1-2.791,0,1.492,1.492,0,0,1,0-2.357l1.974-1.667a2.113,2.113,0,0,1,1.108-.465l1.418-1.2A4.171,4.171,0,0,0,9.706,10.345Z" transform="translate(-4.005 -4.004)"/></svg>