<svg xmlns="http://www.w3.org/2000/svg" width="67.667" height="87" viewBox="0 0 67.667 87"><defs><style>.a{fill:#fff;}.b,.d{fill:#4788c7;}.c{fill:#dff0fe;}.d{font-size:28px;font-family:DINCond-Bold;font-weight:700;}</style></defs><g transform="translate(-6 -2)"><g transform="translate(6 2)"><path class="a" d="M6.5,87.083V2.5H50.708L71.75,23.542V87.083Z" transform="translate(-5.292 -1.292)"/><path class="b" d="M50.916,4.417,71.25,24.75V86.583H8.417V4.417h42.5m1-2.417H6V89H73.667V23.75L51.917,2Z" transform="translate(-6 -2)"/></g><g transform="translate(49.5 2)"><path class="c" d="M24.5,24.25V2.5h.708L46.25,23.542v.708Z" transform="translate(-23.292 -1.292)"/><path class="b" d="M26.417,5.417,44.75,23.75H26.417V5.417m0-3.417H24V26.167H48.167V23.75L26.417,2Z" transform="translate(-24 -2)"/></g><text class="d" transform="translate(13.833 61.5)"><tspan x="0" y="0">DOCX</tspan></text></g></svg>