<?xml version="1.0" encoding="utf-8"?>
<!-- Generator: Adobe Illustrator 22.1.0, SVG Export Plug-In . SVG Version: 6.00 Build 0)  -->
<svg version="1.1" id="Слой_1" xmlns="http://www.w3.org/2000/svg" xmlns:xlink="http://www.w3.org/1999/xlink" x="0px" y="0px"
	 viewBox="0 0 512 512" style="enable-background:new 0 0 512 512;" xml:space="preserve">
<style type="text/css">
	.st0{opacity:0.25;fill:#48576A;enable-background:new    ;}
	.st1{opacity:0.65;fill:#48576A;}
</style>
<path class="st0" d="M391.8,374.1c-22.7-8.6-59.5-21.2-82.4-28c-2.4-0.7-2.7-0.9-2.7-10.7c0-8.1,3.3-16.3,6.6-23.3
	c3.6-7.5,7.7-20.2,9.2-31.6c4.2-4.9,10-14.5,13.6-32.9c3.2-16.2,1.7-22.1-0.4-27.6c-0.2-0.6-0.5-1.2-0.6-1.7
	c-0.8-3.8,0.3-23.5,3.1-38.8c1.9-10.5-0.5-32.8-14.9-51.3c-9.1-11.7-26.6-26-58.5-28h-17.5c-31.4,2-48.8,16.3-58,28
	c-14.5,18.5-16.9,40.8-15,51.3c2.8,15.3,3.9,35,3.1,38.8c-0.2,0.7-0.4,1.2-0.6,1.8c-2.1,5.5-3.7,11.4-0.4,27.6
	c3.7,18.4,9.4,28,13.6,32.9c1.5,11.4,5.7,24,9.2,31.6c2.6,5.5,3.8,13,3.8,23.6c0,9.9-0.4,10-2.6,10.7c-23.7,7-58.9,19.4-80,27.8
	C91.6,341.4,76,299.9,76,256c0-48.1,18.7-93.3,52.7-127.3S207.9,76,256,76s93.3,18.7,127.3,52.7S436,207.9,436,256
	C436,299.9,420.4,341.4,391.8,374.1z"/>
<path class="st1" d="M256,460c-50.8,0-99.4-18.7-136.9-52.8c-37.3-33.8-60.7-79.9-65.9-129.7c-0.8-7.1-1.2-14.3-1.2-21.5
	c0-7.2,0.4-14.4,1.2-21.4c5.2-49.9,28.6-96,65.9-129.8C156.6,70.7,205.2,52,256,52c54.5,0,105.7,21.2,144.3,59.7
	C438.8,150.3,460,201.5,460,256c0,54.5-21.2,105.7-59.7,144.3S310.5,460,256,460z M256,64c-51.3,0-99.5,20-135.8,56.2
	C84,156.5,64,204.7,64,256c0,46.5,16.8,91.3,47.4,126.2l5.6,6.4l7.9-3.1c19.7-7.8,54.6-20.3,79-27.4l0.2-0.1c11-3.5,11-12.5,11-22.1
	c0-12.4-1.6-21.5-4.9-28.7c-3.1-6.8-6.9-18.1-8.2-28.1l-0.5-3.5l-2.3-2.7c-2.6-3.1-7.6-10.8-10.9-27.5c-2.8-13.9-1.4-17.7-0.2-21
	l0.1-0.2l0.2-0.6c0.2-0.6,0.4-1.2,0.6-1.9l0.1-0.4l0.1-0.4c1.5-6.9-0.5-29.4-3-43.4c-1.5-8,0.7-26.5,12.6-41.7
	c7.6-9.7,22.3-21.6,48.9-23.4h16.7c27.2,1.8,41.9,13.7,49.4,23.4c11.9,15.3,14,33.7,12.6,41.8c-2.5,13.9-4.5,36.3-3.1,43.3l0,0
	c0.3,1.4,0.7,2.4,1,3.1l0.1,0.1l0,0.1l0.1,0.2c1.2,3.2,2.6,6.9-0.2,21c-3.2,16.5-8.2,24.3-10.9,27.4l-2.3,2.7l-0.5,3.5
	c-1.4,10.5-5.2,21.8-8.1,28c-3.6,7.7-7.8,17.9-7.8,28.5c0,9.7,0,18.9,11.3,22.2c21.4,6.3,58,18.8,81.5,27.7l7.8,3l5.5-6.3
	c30.4-34.8,47.2-79.5,47.2-126c0-51.3-20-99.5-56.2-135.8C355.5,84,307.3,64,256,64z"/>
</svg>
